Coordinates
version=1
nRows=13
nColumns=34
inDegrees=yes

Units are S.I. units (second, meters, Newtons, ...)
If the header above contains a line with 'inDegrees', this indicates whether rotational values are in degrees (yes) or radians (no).

endheader
time	pelvis_tilt	pelvis_list	pelvis_rotation	pelvis_tx	pelvis_ty	pelvis_tz	hip_flexion_r	hip_adduction_r	hip_rotation_r	knee_angle_r	ankle_angle_r	subtalar_angle_r	mtp_angle_r	hip_flexion_l	hip_adduction_l	hip_rotation_l	knee_angle_l	ankle_angle_l	subtalar_angle_l	mtp_angle_l	lumbar_extension	lumbar_bending	lumbar_rotation	arm_flex_r	arm_add_r	arm_rot_r	elbow_flex_r	pro_sup_r	arm_flex_l	arm_add_l	arm_rot_l	elbow_flex_l	pro_sup_l
      1.46666670	     -0.56433380	     -0.38325131	     -3.98056734	     -1.56623696	      0.99084940	      0.03072194	     -3.67019023	      2.76023784	      0.84487695	      1.07708244	      5.34394300	     -6.99646152	      0.00000000	     -4.64025891	      1.43550021	     -4.50265880	      0.57318203	     10.61030041	      0.86257820	      0.00000000	      0.75956037	      1.66273030	     -4.27932992	      1.87958245	     -4.63812068	     11.64914306	     20.86826754	     89.10886766	     -1.86073785	     -6.67242563	     12.31281662	     24.22935620	     80.44696825
      1.48333330	     -0.58520554	     -0.38961707	     -3.98666896	     -1.56608015	      0.99031708	      0.03033074	     -3.71841534	      2.74660473	      0.83870857	      1.09506613	      5.34509674	     -7.00071829	      0.00000000	     -4.60859716	      1.43998287	     -4.50781073	      0.56358959	     10.61338384	      0.85719450	      0.00000000	      0.75357591	      1.66177639	     -4.27626712	      1.88065390	     -4.63626880	     11.64936813	     20.86969246	     89.10834887	     -1.86083893	     -6.67641462	     12.31326873	     24.23044124	     80.44617854
      1.50000000	     -0.57514237	     -0.24743036	     -3.89720190	     -1.56626158	      0.99036034	      0.02956276	     -3.84210054	      2.54307330	      0.67744109	      0.96372237	      5.44327160	     -7.13360641	      0.00000000	     -4.46161428	      1.61071005	     -4.66103291	      0.79459138	     10.64902782	      0.66868268	      0.00000000	      0.62850971	      1.53470355	     -4.24869932	      1.81736916	     -4.64638539	     11.64974899	     20.89658962	     89.08691102	     -1.83222870	     -6.74352139	     12.34431406	     24.30631457	     80.41833707
      1.51666670	     -0.56519762	     -0.26271105	     -3.81935715	     -1.56667942	      0.99074191	      0.02878539	     -3.87796006	      2.51019697	      0.70354590	      0.98323472	      5.43901313	     -7.12604419	      0.00000000	     -4.42292853	      1.59948308	     -4.65446045	      0.83558728	     10.63223531	      0.65605597	      0.00000000	      0.62376576	      1.49674442	     -4.23331637	      1.81850105	     -4.63616055	     11.65066478	     20.90981894	     89.08272549	     -1.82575643	     -6.75448836	     12.35113075	     24.32207599	     80.41303090
      1.53333330	     -0.52573770	     -0.21435195	     -3.63276018	     -1.56670451	      0.99099906	      0.02799815	     -3.95540213	      2.42479625	      0.79287008	      0.94489052	      5.43132862	     -7.10026896	      0.00000000	     -4.24861268	      1.63633451	     -4.59459629	      1.14311807	     10.48110837	      0.63250305	      0.00000000	      0.52612075	      1.39931395	     -4.28323573	      1.71160150	     -4.62839060	     11.65358290	     20.91639457	     89.06645455	     -1.69923806	     -6.79701578	     12.37492370	     24.40687643	     80.39365636
      1.55000000	     -0.51870039	     -0.20372308	     -3.46468910	     -1.56606725	      0.99085069	      0.02713273	     -4.02222815	      2.37860831	      0.69358793	      0.81422253	      5.38112498	     -7.16649504	      0.00000000	     -4.01853639	      1.63575280	     -4.45345993	      1.51518776	     10.35568654	      0.51932034	      0.00000000	      0.37501187	      1.26155960	     -4.28959970	      1.66198161	     -4.60223491	     11.64851270	     20.98917912	     89.03003436	     -1.53577843	     -6.89385425	     12.43324359	     24.52928657	     80.35680764
      1.56666670	     -0.52909978	     -0.23630881	     -3.45880100	     -1.56469230	      0.99043373	      0.02628676	     -4.03378932	      2.35785215	      0.69324747	      0.82663881	      5.37586484	     -7.16747005	      0.00000000	     -4.01679581	      1.64189156	     -4.45085308	      1.52218737	     10.35594404	      0.51557123	      0.00000000	      0.37150154	      1.25924469	     -4.29122209	      1.65998045	     -4.60043195	     11.64841215	     20.99055156	     89.02912923	     -1.53068153	     -6.89700760	     12.43457520	     24.53202955	     80.35594693
      1.58333330	     -0.45662684	     -0.27526705	     -3.16396325	     -1.56401325	      0.99008755	      0.02486024	     -4.05476619	      2.35140424	      0.33341528	      1.05322853	      5.12112632	     -7.42401270	      0.00000000	     -3.88629473	      1.63630626	     -4.12653037	      1.95119984	     10.48261620	      0.26343141	      0.00000000	      0.15580336	      1.23283612	     -4.33747025	      1.52994057	     -4.67100085	     11.61526674	     21.05914611	     88.96124961	     -1.36863311	     -6.90936534	     12.56404558	     24.67765078	     80.30056787
      1.60000000	     -0.49455837	     -0.31611686	     -3.15543347	     -1.56336383	      0.99047671	      0.02379407	     -4.06610928	      2.34435742	      0.33545930	      1.06704572	      5.11851827	     -7.42576413	      0.00000000	     -3.90800853	      1.66715132	     -4.12664316	      1.97025128	     10.48226418	      0.25966443	      0.00000000	      0.15507044	      1.23295587	     -4.33614279	      1.53076824	     -4.66733375	     11.61525611	     21.06106864	     88.96041952	     -1.36585529	     -6.91458736	     12.56478535	     24.67855294	     80.29973114
      1.61666670	     -0.47655949	     -0.32434473	     -3.03709352	     -1.56325011	      0.99141737	      0.02236090	     -4.09977879	      2.28341276	      0.34110738	      1.21376286	      5.09661181	     -7.45367427	      0.00000000	     -3.90744743	      1.74150682	     -4.12197041	      2.10420953	     10.48550032	      0.21025358	      0.00000000	      0.13827299	      1.29290857	     -4.32039399	      1.49846686	     -4.68605266	     11.61054107	     21.05343273	     88.95182731	     -1.37293115	     -6.92718513	     12.57696131	     24.68102856	     80.29208505
      1.63333330	     -0.51705848	     -0.37696356	     -3.04488546	     -1.56347295	      0.99256942	      0.02099845	     -4.11606621	      2.26614986	      0.33841837	      1.23519343	      5.09858556	     -7.46007006	      0.00000000	     -3.90962091	      1.77130982	     -4.11844487	      2.13051871	     10.48405120	      0.20574350	      0.00000000	      0.12530092	      1.28389381	     -4.32070857	      1.49612811	     -4.68654291	     11.60998188	     21.05239071	     88.95086149	     -1.36896103	     -6.93178241	     12.57775883	     24.68139759	     80.29114225
      1.65000000	     -0.47912348	     -0.30012340	     -2.86908817	     -1.56472283	      0.99378678	      0.01944670	     -3.81467306	      2.10022697	      0.22327619	      1.91911044	      5.34636032	     -7.78235554	      0.00000000	     -3.39731990	      1.88465518	     -3.97974546	      3.13983863	     10.51860643	     -0.19703498	      0.00000000	     -0.49314017	      1.05604092	     -4.23551434	      1.71230894	     -4.74862246	     11.56132102	     21.11154186	     88.89444152	     -0.96724994	     -7.00493879	     12.63054826	     24.76373735	     80.23942492
      1.66666670	     -0.50866260	     -0.31297989	     -2.79070770	     -1.56333622	      0.99427682	      0.01779825	     -3.80619462	      2.01438987	      0.24959603	      2.02099262	      5.36385155	     -7.79476275	      0.00000000	     -3.37099368	      1.95953426	     -3.95310560	      3.26150525	     10.51325117	     -0.24372972	      0.00000000	     -0.53807186	      1.13686587	     -4.19936107	      1.69951897	     -4.73235205	     11.55857591	     21.11525497	     88.88665624	     -0.97499692	     -7.05546519	     12.63378583	     24.74608169	     80.23111873
